<svg width="107" height="125" viewBox="0 0 107 125" fill="none" xmlns="http://www.w3.org/2000/svg">
<path d="M73.8727 57.164C78.6403 57.164 82.5051 53.3041 82.5051 48.5427C82.5051 43.7813 78.6403 39.9214 73.8727 39.9214C69.1051 39.9214 65.2402 43.7813 65.2402 48.5427C65.2402 53.3041 69.1051 57.164 73.8727 57.164Z" fill="#00AB46"/>
<path d="M28.8518 55.225C32.547 55.225 35.5426 52.2333 35.5426 48.5429C35.5426 44.8525 32.547 41.8608 28.8518 41.8608C25.1567 41.8608 22.1611 44.8525 22.1611 48.5429C22.1611 52.2333 25.1567 55.225 28.8518 55.225Z" fill="#FE2B25"/>
<path d="M59.2573 62.9686C59.912 58.9407 57.1732 55.1454 53.1401 54.4916C49.107 53.8378 45.3068 56.573 44.6522 60.6009C43.9975 64.6288 46.7363 68.4241 50.7694 69.0779C54.8025 69.7317 58.6027 66.9965 59.2573 62.9686Z" fill="#FFB800"/>
<path d="M6.33332 67.1537C9.30525 67.1537 11.7145 64.7476 11.7145 61.7795C11.7145 58.8114 9.30525 56.4053 6.33332 56.4053C3.36138 56.4053 0.952148 58.8114 0.952148 61.7795C0.952148 64.7476 3.36138 67.1537 6.33332 67.1537Z" fill="#1F87FC"/>
<path d="M73.8727 30.684C78.6403 30.684 82.5051 26.8241 82.5051 22.0627C82.5051 17.3013 78.6403 13.4414 73.8727 13.4414C69.1051 13.4414 65.2402 17.3013 65.2402 22.0627C65.2402 26.8241 69.1051 30.684 73.8727 30.684Z" fill="#00AB46"/>
<path d="M28.8518 28.7445C32.547 28.7445 35.5426 25.7528 35.5426 22.0624C35.5426 18.372 32.547 15.3804 28.8518 15.3804C25.1567 15.3804 22.1611 18.372 22.1611 22.0624C22.1611 25.7528 25.1567 28.7445 28.8518 28.7445Z" fill="#FE2B25"/>
<path d="M59.2534 36.4925C59.9081 32.4646 57.1693 28.6694 53.1362 28.0155C49.1031 27.3617 45.3029 30.0969 44.6483 34.1248C43.9936 38.1527 46.7324 41.948 50.7655 42.6018C54.7986 43.2556 58.5988 40.5204 59.2534 36.4925Z" fill="#FFB800"/>
<path d="M59.2573 10.0101C59.912 5.98221 57.1732 2.18693 53.1401 1.53312C49.107 0.879297 45.3068 3.61452 44.6522 7.64241C43.9975 11.6703 46.7363 15.4656 50.7694 16.1194C54.8025 16.7732 58.6027 14.038 59.2573 10.0101Z" fill="#FFB800"/>
<path d="M6.33332 40.6732C9.30525 40.6732 11.7145 38.2671 11.7145 35.299C11.7145 32.3309 9.30525 29.9248 6.33332 29.9248C3.36138 29.9248 0.952148 32.3309 0.952148 35.299C0.952148 38.2671 3.36138 40.6732 6.33332 40.6732Z" fill="#1F87FC"/>
<path d="M96.7898 71.8586C102.364 71.8586 106.882 67.3459 106.882 61.7792C106.882 56.2124 102.364 51.6997 96.7898 51.6997C91.2158 51.6997 86.6973 56.2124 86.6973 61.7792C86.6973 67.3459 91.2158 71.8586 96.7898 71.8586Z" fill="#1F87FC"/>
<path d="M96.7898 45.3787C102.364 45.3787 106.882 40.8659 106.882 35.2992C106.882 29.7325 102.364 25.2197 96.7898 25.2197C91.2158 25.2197 86.6973 29.7325 86.6973 35.2992C86.6973 40.8659 91.2158 45.3787 96.7898 45.3787Z" fill="#1F87FC"/>
<path d="M79.9743 81.1123C83.3455 77.7455 83.3455 72.2868 79.9743 68.9199C76.6031 65.5531 71.1374 65.5531 67.7662 68.9199C64.395 72.2868 64.395 77.7455 67.7662 81.1123C71.1374 84.4791 76.6031 84.4791 79.9743 81.1123Z" fill="#00AB46"/>
<path d="M28.8518 81.6976C32.547 81.6976 35.5426 78.706 35.5426 75.0156C35.5426 71.3252 32.547 68.3335 28.8518 68.3335C25.1567 68.3335 22.1611 71.3252 22.1611 75.0156C22.1611 78.706 25.1567 81.6976 28.8518 81.6976Z" fill="#FE2B25"/>
<path d="M79.9753 107.594C83.3464 104.227 83.3464 98.7682 79.9753 95.4014C76.6041 92.0346 71.1383 92.0346 67.7671 95.4014C64.396 98.7682 64.396 104.227 67.7671 107.594C71.1383 110.961 76.6041 110.961 79.9753 107.594Z" fill="#00AB46"/>
<path d="M28.8518 108.178C32.547 108.178 35.5426 105.186 35.5426 101.496C35.5426 97.8056 32.547 94.814 28.8518 94.814C25.1567 94.814 22.1611 97.8056 22.1611 101.496C22.1611 105.186 25.1567 108.178 28.8518 108.178Z" fill="#FE2B25"/>
<path d="M58.7893 91.0866C60.3529 87.3166 58.5603 82.9945 54.7854 81.433C51.0105 79.8714 46.6828 81.6617 45.1192 85.4316C43.5556 89.2016 45.3482 93.5237 49.1231 95.0853C52.898 96.6469 57.2257 94.8566 58.7893 91.0866Z" fill="#FFB800"/>
<path d="M58.7805 117.558C60.3441 113.788 58.5515 109.466 54.7766 107.904C51.0017 106.343 46.6741 108.133 45.1104 111.903C43.5468 115.673 45.3394 119.995 49.1143 121.556C52.8892 123.118 57.2169 121.328 58.7805 117.558Z" fill="#FFB800"/>
<path d="M6.33332 93.6337C9.30525 93.6337 11.7145 91.2276 11.7145 88.2595C11.7145 85.2914 9.30525 82.8853 6.33332 82.8853C3.36138 82.8853 0.952148 85.2914 0.952148 88.2595C0.952148 91.2276 3.36138 93.6337 6.33332 93.6337Z" fill="#1F87FC"/>
<path d="M96.7898 98.3386C102.364 98.3386 106.882 93.8259 106.882 88.2591C106.882 82.6924 102.364 78.1797 96.7898 78.1797C91.2158 78.1797 86.6973 82.6924 86.6973 88.2591C86.6973 93.8259 91.2158 98.3386 96.7898 98.3386Z" fill="#1F87FC"/>
</svg>
